<mxfile host="app.diagrams.net" modified="2024-01-15T05:35:26.777Z" agent="Mozilla/5.0 (Windows NT 10.0; Win64; x64) AppleWebKit/537.36 (KHTML, like Gecko) Chrome/120.0.0.0 Safari/537.36" etag="UJLB7soesRKLH6bDeRuT" version="22.1.18" type="github">
  <diagram name="第 1 页" id="VHGbGDnMgqO-5t6v79oZ">
    <mxGraphModel dx="1434" dy="746" grid="1" gridSize="10" guides="1" tooltips="1" connect="1" arrows="1" fold="1" page="1" pageScale="1" pageWidth="827" pageHeight="1169" math="0" shadow="0">
      <root>
        <mxCell id="0" />
        <mxCell id="1" parent="0" />
        <mxCell id="4s-MxoT5aHJWe4rpYBFu-27" value="" style="rounded=0;whiteSpace=wrap;html=1;fillColor=#e1d5e7;strokeWidth=3;dashed=1;strokeColor=#9673a6;" vertex="1" parent="1">
          <mxGeometry x="120" y="740" width="640" height="140" as="geometry" />
        </mxCell>
        <mxCell id="4s-MxoT5aHJWe4rpYBFu-26" value="" style="rounded=0;whiteSpace=wrap;html=1;fillColor=#f8cecc;strokeWidth=3;dashed=1;strokeColor=#b85450;" vertex="1" parent="1">
          <mxGeometry x="120" y="543" width="640" height="140" as="geometry" />
        </mxCell>
        <mxCell id="4s-MxoT5aHJWe4rpYBFu-25" value="" style="rounded=0;whiteSpace=wrap;html=1;fillColor=#fff2cc;strokeWidth=3;dashed=1;strokeColor=#d6b656;" vertex="1" parent="1">
          <mxGeometry x="120" y="347" width="640" height="140" as="geometry" />
        </mxCell>
        <mxCell id="4s-MxoT5aHJWe4rpYBFu-20" value="" style="group" vertex="1" connectable="0" parent="1">
          <mxGeometry x="150" y="573" width="520" height="60" as="geometry" />
        </mxCell>
        <mxCell id="4s-MxoT5aHJWe4rpYBFu-9" value="开始实验" style="rounded=1;whiteSpace=wrap;html=1;strokeWidth=3;fontSize=17;fontStyle=1" vertex="1" parent="4s-MxoT5aHJWe4rpYBFu-20">
          <mxGeometry width="120" height="60" as="geometry" />
        </mxCell>
        <mxCell id="4s-MxoT5aHJWe4rpYBFu-15" value="" style="edgeStyle=orthogonalEdgeStyle;rounded=0;orthogonalLoop=1;jettySize=auto;html=1;fontStyle=1;strokeWidth=3;" edge="1" parent="4s-MxoT5aHJWe4rpYBFu-20" source="4s-MxoT5aHJWe4rpYBFu-12">
          <mxGeometry relative="1" as="geometry">
            <mxPoint x="400" y="30" as="targetPoint" />
          </mxGeometry>
        </mxCell>
        <mxCell id="4s-MxoT5aHJWe4rpYBFu-12" value="中途休息" style="whiteSpace=wrap;html=1;fontSize=17;rounded=1;strokeWidth=3;fontStyle=1" vertex="1" parent="4s-MxoT5aHJWe4rpYBFu-20">
          <mxGeometry x="200" width="120" height="60" as="geometry" />
        </mxCell>
        <mxCell id="4s-MxoT5aHJWe4rpYBFu-13" value="" style="edgeStyle=orthogonalEdgeStyle;rounded=0;orthogonalLoop=1;jettySize=auto;html=1;fontStyle=1;strokeWidth=3;" edge="1" parent="4s-MxoT5aHJWe4rpYBFu-20" source="4s-MxoT5aHJWe4rpYBFu-9" target="4s-MxoT5aHJWe4rpYBFu-12">
          <mxGeometry relative="1" as="geometry" />
        </mxCell>
        <mxCell id="4s-MxoT5aHJWe4rpYBFu-14" value="继续实验" style="whiteSpace=wrap;html=1;fontSize=17;rounded=1;strokeWidth=3;fontStyle=1" vertex="1" parent="4s-MxoT5aHJWe4rpYBFu-20">
          <mxGeometry x="400" width="120" height="60" as="geometry" />
        </mxCell>
        <mxCell id="4s-MxoT5aHJWe4rpYBFu-23" value="" style="group" vertex="1" connectable="0" parent="1">
          <mxGeometry x="250" y="770" width="350" height="60" as="geometry" />
        </mxCell>
        <mxCell id="4s-MxoT5aHJWe4rpYBFu-16" value="关闭server.bat " style="rounded=1;whiteSpace=wrap;html=1;strokeWidth=3;fontSize=17;fontStyle=1" vertex="1" parent="4s-MxoT5aHJWe4rpYBFu-23">
          <mxGeometry width="120" height="60" as="geometry" />
        </mxCell>
        <mxCell id="4s-MxoT5aHJWe4rpYBFu-17" value="保存录像" style="rounded=1;whiteSpace=wrap;html=1;strokeWidth=3;fontSize=17;fontStyle=1" vertex="1" parent="4s-MxoT5aHJWe4rpYBFu-23">
          <mxGeometry x="230" width="120" height="60" as="geometry" />
        </mxCell>
        <mxCell id="4s-MxoT5aHJWe4rpYBFu-24" value="" style="rounded=0;whiteSpace=wrap;html=1;fillColor=#ffe6cc;strokeWidth=3;dashed=1;strokeColor=#d79b00;" vertex="1" parent="1">
          <mxGeometry x="120" y="150" width="640" height="140" as="geometry" />
        </mxCell>
        <mxCell id="4s-MxoT5aHJWe4rpYBFu-28" value="" style="group" vertex="1" connectable="0" parent="1">
          <mxGeometry x="150" y="367" width="480" height="80" as="geometry" />
        </mxCell>
        <mxCell id="4s-MxoT5aHJWe4rpYBFu-5" value="开始录像" style="rounded=1;whiteSpace=wrap;html=1;strokeWidth=3;fontSize=17;fontStyle=1" vertex="1" parent="4s-MxoT5aHJWe4rpYBFu-28">
          <mxGeometry y="10" width="120" height="60" as="geometry" />
        </mxCell>
        <mxCell id="4s-MxoT5aHJWe4rpYBFu-6" value="阅读指导语&lt;br&gt;明确实验流程" style="whiteSpace=wrap;html=1;fontSize=17;rounded=1;strokeWidth=3;fontStyle=1" vertex="1" parent="4s-MxoT5aHJWe4rpYBFu-28">
          <mxGeometry x="160" width="160" height="80" as="geometry" />
        </mxCell>
        <mxCell id="4s-MxoT5aHJWe4rpYBFu-21" value="打开练习程序" style="whiteSpace=wrap;html=1;fontSize=17;rounded=1;strokeWidth=3;fontStyle=1;" vertex="1" parent="4s-MxoT5aHJWe4rpYBFu-28">
          <mxGeometry x="360" y="10" width="120" height="60" as="geometry" />
        </mxCell>
        <mxCell id="4s-MxoT5aHJWe4rpYBFu-7" value="" style="edgeStyle=orthogonalEdgeStyle;rounded=0;orthogonalLoop=1;jettySize=auto;html=1;fontStyle=1;strokeWidth=3;" edge="1" parent="4s-MxoT5aHJWe4rpYBFu-28" source="4s-MxoT5aHJWe4rpYBFu-5" target="4s-MxoT5aHJWe4rpYBFu-6">
          <mxGeometry relative="1" as="geometry" />
        </mxCell>
        <mxCell id="4s-MxoT5aHJWe4rpYBFu-22" value="" style="edgeStyle=orthogonalEdgeStyle;rounded=0;orthogonalLoop=1;jettySize=auto;html=1;strokeWidth=3;" edge="1" parent="4s-MxoT5aHJWe4rpYBFu-28" source="4s-MxoT5aHJWe4rpYBFu-6" target="4s-MxoT5aHJWe4rpYBFu-21">
          <mxGeometry relative="1" as="geometry" />
        </mxCell>
        <mxCell id="4s-MxoT5aHJWe4rpYBFu-29" value="" style="group" vertex="1" connectable="0" parent="1">
          <mxGeometry x="140" y="180" width="480" height="60" as="geometry" />
        </mxCell>
        <mxCell id="4s-MxoT5aHJWe4rpYBFu-1" value="运行server.bat" style="rounded=1;whiteSpace=wrap;html=1;strokeWidth=3;fontSize=17;fontStyle=1" vertex="1" parent="4s-MxoT5aHJWe4rpYBFu-29">
          <mxGeometry width="130" height="60" as="geometry" />
        </mxCell>
        <mxCell id="4s-MxoT5aHJWe4rpYBFu-2" value="打开摄像头" style="rounded=1;whiteSpace=wrap;html=1;strokeWidth=3;fontSize=17;fontStyle=1" vertex="1" parent="4s-MxoT5aHJWe4rpYBFu-29">
          <mxGeometry x="183" width="120" height="60" as="geometry" />
        </mxCell>
        <mxCell id="4s-MxoT5aHJWe4rpYBFu-4" value="打开眼动仪" style="rounded=1;whiteSpace=wrap;html=1;strokeWidth=3;fontSize=17;fontStyle=1" vertex="1" parent="4s-MxoT5aHJWe4rpYBFu-29">
          <mxGeometry x="360" width="120" height="60" as="geometry" />
        </mxCell>
        <mxCell id="4s-MxoT5aHJWe4rpYBFu-30" value="实验开始前" style="text;html=1;strokeColor=none;fillColor=none;align=center;verticalAlign=middle;whiteSpace=wrap;rounded=0;fontSize=18;fontStyle=1;fontFamily=Verdana;" vertex="1" parent="1">
          <mxGeometry x="700" y="185" width="20" height="70" as="geometry" />
        </mxCell>
        <mxCell id="4s-MxoT5aHJWe4rpYBFu-31" value="练习试次" style="text;html=1;strokeColor=none;fillColor=none;align=center;verticalAlign=middle;whiteSpace=wrap;rounded=0;fontSize=18;fontStyle=1;fontFamily=Verdana;" vertex="1" parent="1">
          <mxGeometry x="700" y="377" width="20" height="70" as="geometry" />
        </mxCell>
        <mxCell id="4s-MxoT5aHJWe4rpYBFu-32" value="正式实验" style="text;html=1;strokeColor=none;fillColor=none;align=center;verticalAlign=middle;whiteSpace=wrap;rounded=0;fontSize=18;fontStyle=1;fontFamily=Verdana;" vertex="1" parent="1">
          <mxGeometry x="700" y="573" width="20" height="70" as="geometry" />
        </mxCell>
        <mxCell id="4s-MxoT5aHJWe4rpYBFu-33" value="实验结束" style="text;html=1;strokeColor=none;fillColor=none;align=center;verticalAlign=middle;whiteSpace=wrap;rounded=0;fontSize=18;fontStyle=1;fontFamily=Verdana;" vertex="1" parent="1">
          <mxGeometry x="700" y="765" width="20" height="70" as="geometry" />
        </mxCell>
        <mxCell id="4s-MxoT5aHJWe4rpYBFu-43" value="" style="html=1;shadow=0;dashed=0;align=center;verticalAlign=middle;shape=mxgraph.arrows2.arrow;dy=0;dx=30;notch=30;rotation=90;fillColor=#ffe6cc;strokeColor=#d79b00;" vertex="1" parent="1">
          <mxGeometry x="386" y="287" width="55" height="60" as="geometry" />
        </mxCell>
        <mxCell id="4s-MxoT5aHJWe4rpYBFu-44" value="" style="html=1;shadow=0;dashed=0;align=center;verticalAlign=middle;shape=mxgraph.arrows2.arrow;dy=0;dx=30;notch=30;rotation=90;fillColor=#fff2cc;strokeColor=#d6b656;" vertex="1" parent="1">
          <mxGeometry x="380" y="487" width="55" height="60" as="geometry" />
        </mxCell>
        <mxCell id="4s-MxoT5aHJWe4rpYBFu-45" value="" style="html=1;shadow=0;dashed=0;align=center;verticalAlign=middle;shape=mxgraph.arrows2.arrow;dy=0;dx=30;notch=30;rotation=90;fillColor=#f8cecc;strokeColor=#b85450;" vertex="1" parent="1">
          <mxGeometry x="380" y="680" width="55" height="60" as="geometry" />
        </mxCell>
      </root>
    </mxGraphModel>
  </diagram>
</mxfile>
